<mxfile host="app.diagrams.net" modified="2023-03-24T19:01:28.887Z" agent="5.0 (Windows NT 10.0; Win64; x64) AppleWebKit/537.36 (KHTML, like Gecko) Chrome/108.0.0.0 YaBrowser/23.1.5.708 Yowser/2.5 Safari/537.36" etag="eryqHssB09-XJxKYBBYS" version="21.0.10" type="github">
  <diagram name="Page-1" id="2a216829-ef6e-dabb-86c1-c78162f3ba2b">
    <mxGraphModel dx="2162" dy="2071" grid="1" gridSize="10" guides="1" tooltips="1" connect="1" arrows="1" fold="1" page="1" pageScale="1" pageWidth="850" pageHeight="1100" background="none" math="0" shadow="0">
      <root>
        <mxCell id="0" />
        <mxCell id="1" parent="0" />
        <mxCell id="ABjkptQIAevgnRErGSgK-1" value="" style="swimlane;html=1;startSize=20;fontStyle=0;collapsible=0;horizontal=0;swimlaneLine=1;swimlaneFillColor=#ffffff;strokeWidth=2;whiteSpace=wrap;" vertex="1" parent="1">
          <mxGeometry x="70" y="140" width="1590" height="760" as="geometry" />
        </mxCell>
        <mxCell id="ABjkptQIAevgnRErGSgK-5" value="" style="swimlane;html=1;startSize=20;fontStyle=0;collapsible=0;horizontal=0;swimlaneLine=1;swimlaneFillColor=#ffffff;strokeWidth=2;whiteSpace=wrap;" vertex="1" parent="ABjkptQIAevgnRErGSgK-1">
          <mxGeometry y="410" width="1590" height="350" as="geometry" />
        </mxCell>
        <mxCell id="ABjkptQIAevgnRErGSgK-10" value="&lt;font style=&quot;font-size: 17px;&quot;&gt;Доставка&lt;/font&gt;" style="text;html=1;align=center;verticalAlign=middle;resizable=0;points=[];autosize=1;strokeColor=none;fillColor=none;rotation=-90;fontSize=17;horizontal=1;" vertex="1" parent="ABjkptQIAevgnRErGSgK-5">
          <mxGeometry x="-35" y="160" width="100" height="30" as="geometry" />
        </mxCell>
        <mxCell id="ABjkptQIAevgnRErGSgK-21" value="Автомобиль исправен" style="points=[[0.25,0.25,0],[0.5,0,0],[0.75,0.25,0],[1,0.5,0],[0.75,0.75,0],[0.5,1,0],[0.25,0.75,0],[0,0.5,0]];shape=mxgraph.bpmn.gateway2;html=1;verticalLabelPosition=bottom;labelBackgroundColor=#ffffff;verticalAlign=top;align=center;perimeter=rhombusPerimeter;outlineConnect=0;outline=none;symbol=none;gwType=exclusive;" vertex="1" parent="ABjkptQIAevgnRErGSgK-5">
          <mxGeometry x="680" y="75" width="50" height="50" as="geometry" />
        </mxCell>
        <mxCell id="ABjkptQIAevgnRErGSgK-25" style="edgeStyle=orthogonalEdgeStyle;rounded=0;orthogonalLoop=1;jettySize=auto;html=1;exitX=0.5;exitY=1;exitDx=0;exitDy=0;exitPerimeter=0;entryX=0.5;entryY=0;entryDx=0;entryDy=0;" edge="1" parent="ABjkptQIAevgnRErGSgK-5" source="ABjkptQIAevgnRErGSgK-22" target="ABjkptQIAevgnRErGSgK-24">
          <mxGeometry relative="1" as="geometry">
            <Array as="points">
              <mxPoint x="405" y="40" />
              <mxPoint x="545" y="40" />
            </Array>
          </mxGeometry>
        </mxCell>
        <mxCell id="ABjkptQIAevgnRErGSgK-22" value="" style="points=[[0.145,0.145,0],[0.5,0,0],[0.855,0.145,0],[1,0.5,0],[0.855,0.855,0],[0.5,1,0],[0.145,0.855,0],[0,0.5,0]];shape=mxgraph.bpmn.event;html=1;verticalLabelPosition=bottom;labelBackgroundColor=#ffffff;verticalAlign=top;align=center;perimeter=ellipsePerimeter;outlineConnect=0;aspect=fixed;outline=catching;symbol=message;" vertex="1" parent="ABjkptQIAevgnRErGSgK-5">
          <mxGeometry x="380" y="-25" width="50" height="50" as="geometry" />
        </mxCell>
        <mxCell id="ABjkptQIAevgnRErGSgK-26" style="edgeStyle=orthogonalEdgeStyle;rounded=0;orthogonalLoop=1;jettySize=auto;html=1;exitX=1;exitY=0.5;exitDx=0;exitDy=0;entryX=0;entryY=0.5;entryDx=0;entryDy=0;entryPerimeter=0;" edge="1" parent="ABjkptQIAevgnRErGSgK-5" source="ABjkptQIAevgnRErGSgK-24" target="ABjkptQIAevgnRErGSgK-21">
          <mxGeometry relative="1" as="geometry">
            <Array as="points">
              <mxPoint x="680" y="100" />
            </Array>
          </mxGeometry>
        </mxCell>
        <mxCell id="ABjkptQIAevgnRErGSgK-82" style="edgeStyle=orthogonalEdgeStyle;rounded=0;orthogonalLoop=1;jettySize=auto;html=1;exitX=0.5;exitY=1;exitDx=0;exitDy=0;endArrow=none;endFill=0;dashed=1;" edge="1" parent="ABjkptQIAevgnRErGSgK-5" source="ABjkptQIAevgnRErGSgK-24" target="ABjkptQIAevgnRErGSgK-81">
          <mxGeometry relative="1" as="geometry" />
        </mxCell>
        <mxCell id="ABjkptQIAevgnRErGSgK-24" value="Доставка товаров" style="shape=ext;rounded=1;html=1;whiteSpace=wrap;" vertex="1" parent="ABjkptQIAevgnRErGSgK-5">
          <mxGeometry x="490" y="60" width="110" height="80" as="geometry" />
        </mxCell>
        <mxCell id="ABjkptQIAevgnRErGSgK-48" value="Да" style="text;html=1;align=center;verticalAlign=middle;resizable=0;points=[];autosize=1;strokeColor=none;fillColor=none;" vertex="1" parent="ABjkptQIAevgnRErGSgK-5">
          <mxGeometry x="720" y="95" width="40" height="30" as="geometry" />
        </mxCell>
        <mxCell id="ABjkptQIAevgnRErGSgK-49" value="Нет" style="text;html=1;align=center;verticalAlign=middle;resizable=0;points=[];autosize=1;strokeColor=none;fillColor=none;" vertex="1" parent="ABjkptQIAevgnRErGSgK-5">
          <mxGeometry x="700" y="40" width="40" height="30" as="geometry" />
        </mxCell>
        <mxCell id="ABjkptQIAevgnRErGSgK-81" value="Документы о получении товара" style="shape=mxgraph.bpmn.data;labelPosition=center;verticalLabelPosition=bottom;align=center;verticalAlign=top;size=15;html=1;" vertex="1" parent="ABjkptQIAevgnRErGSgK-5">
          <mxGeometry x="850" y="130" width="40" height="60" as="geometry" />
        </mxCell>
        <mxCell id="ABjkptQIAevgnRErGSgK-9" value="&lt;font style=&quot;font-size: 17px;&quot;&gt;Склад&lt;br&gt;&lt;/font&gt;" style="text;html=1;align=center;verticalAlign=middle;resizable=0;points=[];autosize=1;strokeColor=none;fillColor=none;rotation=-90;fontSize=17;horizontal=1;" vertex="1" parent="ABjkptQIAevgnRErGSgK-1">
          <mxGeometry x="-20" y="175" width="70" height="30" as="geometry" />
        </mxCell>
        <mxCell id="ABjkptQIAevgnRErGSgK-23" style="edgeStyle=orthogonalEdgeStyle;rounded=0;orthogonalLoop=1;jettySize=auto;html=1;exitX=0.5;exitY=1;exitDx=0;exitDy=0;entryX=0.5;entryY=0;entryDx=0;entryDy=0;entryPerimeter=0;" edge="1" parent="ABjkptQIAevgnRErGSgK-1" source="ABjkptQIAevgnRErGSgK-18" target="ABjkptQIAevgnRErGSgK-22">
          <mxGeometry relative="1" as="geometry" />
        </mxCell>
        <mxCell id="ABjkptQIAevgnRErGSgK-55" style="edgeStyle=orthogonalEdgeStyle;rounded=0;orthogonalLoop=1;jettySize=auto;html=1;exitX=0;exitY=0.5;exitDx=0;exitDy=0;entryX=0;entryY=0;entryDx=12.5;entryDy=0;entryPerimeter=0;startArrow=none;startFill=0;endArrow=none;endFill=0;dashed=1;" edge="1" parent="ABjkptQIAevgnRErGSgK-1" source="ABjkptQIAevgnRErGSgK-18" target="ABjkptQIAevgnRErGSgK-52">
          <mxGeometry relative="1" as="geometry" />
        </mxCell>
        <mxCell id="ABjkptQIAevgnRErGSgK-18" value="Получение товара на складе" style="shape=ext;rounded=1;html=1;whiteSpace=wrap;" vertex="1" parent="ABjkptQIAevgnRErGSgK-1">
          <mxGeometry x="355" y="80" width="120" height="80" as="geometry" />
        </mxCell>
        <mxCell id="ABjkptQIAevgnRErGSgK-45" style="edgeStyle=orthogonalEdgeStyle;rounded=0;orthogonalLoop=1;jettySize=auto;html=1;exitX=1;exitY=0.5;exitDx=0;exitDy=0;entryX=0;entryY=0.5;entryDx=0;entryDy=0;entryPerimeter=0;" edge="1" parent="ABjkptQIAevgnRErGSgK-1" source="ABjkptQIAevgnRErGSgK-27" target="ABjkptQIAevgnRErGSgK-44">
          <mxGeometry relative="1" as="geometry" />
        </mxCell>
        <mxCell id="ABjkptQIAevgnRErGSgK-27" value="Починка автомобиля" style="shape=ext;rounded=1;html=1;whiteSpace=wrap;" vertex="1" parent="ABjkptQIAevgnRErGSgK-1">
          <mxGeometry x="660" y="140" width="110" height="80" as="geometry" />
        </mxCell>
        <mxCell id="ABjkptQIAevgnRErGSgK-36" style="edgeStyle=orthogonalEdgeStyle;rounded=0;orthogonalLoop=1;jettySize=auto;html=1;exitX=0.5;exitY=0;exitDx=0;exitDy=0;exitPerimeter=0;entryX=0.5;entryY=1;entryDx=0;entryDy=0;" edge="1" parent="ABjkptQIAevgnRErGSgK-1" source="ABjkptQIAevgnRErGSgK-21">
          <mxGeometry relative="1" as="geometry">
            <mxPoint x="595" y="270" as="targetPoint" />
          </mxGeometry>
        </mxCell>
        <mxCell id="ABjkptQIAevgnRErGSgK-42" style="edgeStyle=orthogonalEdgeStyle;rounded=0;orthogonalLoop=1;jettySize=auto;html=1;exitX=1;exitY=0.5;exitDx=0;exitDy=0;exitPerimeter=0;entryX=0;entryY=0.5;entryDx=0;entryDy=0;" edge="1" parent="ABjkptQIAevgnRErGSgK-1" source="ABjkptQIAevgnRErGSgK-37" target="ABjkptQIAevgnRErGSgK-27">
          <mxGeometry relative="1" as="geometry" />
        </mxCell>
        <mxCell id="ABjkptQIAevgnRErGSgK-43" style="edgeStyle=orthogonalEdgeStyle;rounded=0;orthogonalLoop=1;jettySize=auto;html=1;exitX=1;exitY=0.5;exitDx=0;exitDy=0;exitPerimeter=0;entryX=0;entryY=0.5;entryDx=0;entryDy=0;" edge="1" parent="ABjkptQIAevgnRErGSgK-1" source="ABjkptQIAevgnRErGSgK-37" target="ABjkptQIAevgnRErGSgK-39">
          <mxGeometry relative="1" as="geometry" />
        </mxCell>
        <mxCell id="ABjkptQIAevgnRErGSgK-37" value="" style="points=[[0.25,0.25,0],[0.5,0,0],[0.75,0.25,0],[1,0.5,0],[0.75,0.75,0],[0.5,1,0],[0.25,0.75,0],[0,0.5,0]];shape=mxgraph.bpmn.gateway2;html=1;verticalLabelPosition=bottom;labelBackgroundColor=#ffffff;verticalAlign=top;align=center;perimeter=rhombusPerimeter;outlineConnect=0;outline=none;symbol=none;" vertex="1" parent="ABjkptQIAevgnRErGSgK-1">
          <mxGeometry x="570" y="220" width="50" height="50" as="geometry" />
        </mxCell>
        <mxCell id="ABjkptQIAevgnRErGSgK-46" style="edgeStyle=orthogonalEdgeStyle;rounded=0;orthogonalLoop=1;jettySize=auto;html=1;exitX=1;exitY=0.5;exitDx=0;exitDy=0;entryX=0;entryY=0.5;entryDx=0;entryDy=0;entryPerimeter=0;" edge="1" parent="ABjkptQIAevgnRErGSgK-1" source="ABjkptQIAevgnRErGSgK-39" target="ABjkptQIAevgnRErGSgK-44">
          <mxGeometry relative="1" as="geometry" />
        </mxCell>
        <mxCell id="ABjkptQIAevgnRErGSgK-39" value="Замена автомобиля" style="shape=ext;rounded=1;html=1;whiteSpace=wrap;" vertex="1" parent="ABjkptQIAevgnRErGSgK-1">
          <mxGeometry x="660" y="260" width="110" height="80" as="geometry" />
        </mxCell>
        <mxCell id="ABjkptQIAevgnRErGSgK-40" value="" style="points=[[0.25,0.25,0],[0.5,0,0],[0.75,0.25,0],[1,0.5,0],[0.75,0.75,0],[0.5,1,0],[0.25,0.75,0],[0,0.5,0]];shape=mxgraph.bpmn.gateway2;html=1;verticalLabelPosition=bottom;labelBackgroundColor=#ffffff;verticalAlign=top;align=center;perimeter=rhombusPerimeter;outlineConnect=0;outline=none;symbol=none;" vertex="1" parent="ABjkptQIAevgnRErGSgK-1">
          <mxGeometry x="610" y="40" width="50" height="50" as="geometry" />
        </mxCell>
        <mxCell id="ABjkptQIAevgnRErGSgK-51" style="edgeStyle=orthogonalEdgeStyle;rounded=0;orthogonalLoop=1;jettySize=auto;html=1;exitX=1;exitY=0.5;exitDx=0;exitDy=0;exitPerimeter=0;entryX=0.5;entryY=0;entryDx=0;entryDy=0;" edge="1" parent="ABjkptQIAevgnRErGSgK-1" source="ABjkptQIAevgnRErGSgK-44" target="ABjkptQIAevgnRErGSgK-24">
          <mxGeometry relative="1" as="geometry">
            <Array as="points">
              <mxPoint x="890" y="245" />
              <mxPoint x="890" y="120" />
              <mxPoint x="545" y="120" />
            </Array>
          </mxGeometry>
        </mxCell>
        <mxCell id="ABjkptQIAevgnRErGSgK-44" value="" style="points=[[0.25,0.25,0],[0.5,0,0],[0.75,0.25,0],[1,0.5,0],[0.75,0.75,0],[0.5,1,0],[0.25,0.75,0],[0,0.5,0]];shape=mxgraph.bpmn.gateway2;html=1;verticalLabelPosition=bottom;labelBackgroundColor=#ffffff;verticalAlign=top;align=center;perimeter=rhombusPerimeter;outlineConnect=0;outline=none;symbol=none;" vertex="1" parent="ABjkptQIAevgnRErGSgK-1">
          <mxGeometry x="820" y="220" width="50" height="50" as="geometry" />
        </mxCell>
        <mxCell id="ABjkptQIAevgnRErGSgK-52" value="Документы на товар" style="shape=mxgraph.bpmn.data;labelPosition=center;verticalLabelPosition=bottom;align=center;verticalAlign=top;size=15;html=1;" vertex="1" parent="ABjkptQIAevgnRErGSgK-1">
          <mxGeometry x="280" y="210" width="40" height="60" as="geometry" />
        </mxCell>
        <mxCell id="ABjkptQIAevgnRErGSgK-56" style="edgeStyle=orthogonalEdgeStyle;rounded=0;orthogonalLoop=1;jettySize=auto;html=1;exitX=0;exitY=0.5;exitDx=0;exitDy=0;entryX=0.5;entryY=1;entryDx=0;entryDy=0;entryPerimeter=0;dashed=1;endArrow=none;endFill=0;" edge="1" parent="ABjkptQIAevgnRErGSgK-1" source="ABjkptQIAevgnRErGSgK-24" target="ABjkptQIAevgnRErGSgK-52">
          <mxGeometry relative="1" as="geometry" />
        </mxCell>
        <mxCell id="ABjkptQIAevgnRErGSgK-83" style="edgeStyle=orthogonalEdgeStyle;rounded=0;orthogonalLoop=1;jettySize=auto;html=1;exitX=0.5;exitY=1;exitDx=0;exitDy=0;entryX=0;entryY=0;entryDx=40;entryDy=37.5;entryPerimeter=0;endArrow=none;endFill=0;dashed=1;" edge="1" parent="ABjkptQIAevgnRErGSgK-1" source="ABjkptQIAevgnRErGSgK-66" target="ABjkptQIAevgnRErGSgK-81">
          <mxGeometry relative="1" as="geometry">
            <Array as="points">
              <mxPoint x="1325" y="370" />
              <mxPoint x="1135" y="370" />
              <mxPoint x="1135" y="570" />
              <mxPoint x="890" y="570" />
            </Array>
          </mxGeometry>
        </mxCell>
        <mxCell id="ABjkptQIAevgnRErGSgK-104" style="edgeStyle=orthogonalEdgeStyle;rounded=0;orthogonalLoop=1;jettySize=auto;html=1;exitX=1;exitY=0.5;exitDx=0;exitDy=0;endArrow=none;endFill=0;dashed=1;" edge="1" parent="ABjkptQIAevgnRErGSgK-1" source="ABjkptQIAevgnRErGSgK-66" target="ABjkptQIAevgnRErGSgK-103">
          <mxGeometry relative="1" as="geometry" />
        </mxCell>
        <mxCell id="ABjkptQIAevgnRErGSgK-66" value="Сдача документов" style="shape=ext;rounded=1;html=1;whiteSpace=wrap;" vertex="1" parent="ABjkptQIAevgnRErGSgK-1">
          <mxGeometry x="1270" y="105" width="110" height="80" as="geometry" />
        </mxCell>
        <mxCell id="ABjkptQIAevgnRErGSgK-85" style="edgeStyle=orthogonalEdgeStyle;rounded=0;orthogonalLoop=1;jettySize=auto;html=1;exitX=0.5;exitY=0;exitDx=0;exitDy=0;exitPerimeter=0;entryX=0.5;entryY=1;entryDx=0;entryDy=0;" edge="1" parent="ABjkptQIAevgnRErGSgK-1" source="ABjkptQIAevgnRErGSgK-79" target="ABjkptQIAevgnRErGSgK-38">
          <mxGeometry relative="1" as="geometry" />
        </mxCell>
        <mxCell id="ABjkptQIAevgnRErGSgK-98" style="edgeStyle=orthogonalEdgeStyle;rounded=0;orthogonalLoop=1;jettySize=auto;html=1;exitX=1;exitY=0.5;exitDx=0;exitDy=0;exitPerimeter=0;entryX=0;entryY=0.5;entryDx=0;entryDy=0;" edge="1" parent="ABjkptQIAevgnRErGSgK-1" source="ABjkptQIAevgnRErGSgK-79" target="ABjkptQIAevgnRErGSgK-66">
          <mxGeometry relative="1" as="geometry">
            <Array as="points">
              <mxPoint x="1250" y="285" />
              <mxPoint x="1250" y="145" />
            </Array>
          </mxGeometry>
        </mxCell>
        <mxCell id="ABjkptQIAevgnRErGSgK-79" value="Есть документы о получении товара" style="points=[[0.25,0.25,0],[0.5,0,0],[0.75,0.25,0],[1,0.5,0],[0.75,0.75,0],[0.5,1,0],[0.25,0.75,0],[0,0.5,0]];shape=mxgraph.bpmn.gateway2;html=1;verticalLabelPosition=bottom;labelBackgroundColor=#ffffff;verticalAlign=top;align=center;perimeter=rhombusPerimeter;outlineConnect=0;outline=none;symbol=none;gwType=exclusive;" vertex="1" parent="ABjkptQIAevgnRErGSgK-1">
          <mxGeometry x="950" y="260" width="50" height="50" as="geometry" />
        </mxCell>
        <mxCell id="ABjkptQIAevgnRErGSgK-80" style="edgeStyle=orthogonalEdgeStyle;rounded=0;orthogonalLoop=1;jettySize=auto;html=1;exitX=0.5;exitY=0;exitDx=0;exitDy=0;exitPerimeter=0;entryX=0;entryY=0.5;entryDx=0;entryDy=0;entryPerimeter=0;" edge="1" parent="ABjkptQIAevgnRErGSgK-1" source="ABjkptQIAevgnRErGSgK-76" target="ABjkptQIAevgnRErGSgK-79">
          <mxGeometry relative="1" as="geometry" />
        </mxCell>
        <mxCell id="ABjkptQIAevgnRErGSgK-76" value="" style="points=[[0.145,0.145,0],[0.5,0,0],[0.855,0.145,0],[1,0.5,0],[0.855,0.855,0],[0.5,1,0],[0.145,0.855,0],[0,0.5,0]];shape=mxgraph.bpmn.event;html=1;verticalLabelPosition=bottom;labelBackgroundColor=#ffffff;verticalAlign=top;align=center;perimeter=ellipsePerimeter;outlineConnect=0;aspect=fixed;outline=catching;symbol=message;" vertex="1" parent="ABjkptQIAevgnRErGSgK-1">
          <mxGeometry x="850" y="385" width="50" height="50" as="geometry" />
        </mxCell>
        <mxCell id="ABjkptQIAevgnRErGSgK-77" style="edgeStyle=orthogonalEdgeStyle;rounded=0;orthogonalLoop=1;jettySize=auto;html=1;exitX=1;exitY=0.5;exitDx=0;exitDy=0;exitPerimeter=0;" edge="1" parent="ABjkptQIAevgnRErGSgK-1" source="ABjkptQIAevgnRErGSgK-21" target="ABjkptQIAevgnRErGSgK-76">
          <mxGeometry relative="1" as="geometry" />
        </mxCell>
        <mxCell id="ABjkptQIAevgnRErGSgK-88" style="edgeStyle=orthogonalEdgeStyle;rounded=0;orthogonalLoop=1;jettySize=auto;html=1;exitX=1;exitY=0.5;exitDx=0;exitDy=0;entryX=0;entryY=0.5;entryDx=0;entryDy=0;" edge="1" parent="ABjkptQIAevgnRErGSgK-1" source="ABjkptQIAevgnRErGSgK-38" target="ABjkptQIAevgnRErGSgK-86">
          <mxGeometry relative="1" as="geometry" />
        </mxCell>
        <mxCell id="ABjkptQIAevgnRErGSgK-89" style="edgeStyle=orthogonalEdgeStyle;rounded=0;orthogonalLoop=1;jettySize=auto;html=1;exitX=1;exitY=0.5;exitDx=0;exitDy=0;" edge="1" parent="ABjkptQIAevgnRErGSgK-1" source="ABjkptQIAevgnRErGSgK-38" target="ABjkptQIAevgnRErGSgK-87">
          <mxGeometry relative="1" as="geometry" />
        </mxCell>
        <mxCell id="ABjkptQIAevgnRErGSgK-38" value="" style="shape=mxgraph.bpmn.shape;html=1;verticalLabelPosition=bottom;labelBackgroundColor=#ffffff;verticalAlign=top;perimeter=rhombusPerimeter;background=gateway;outline=none;symbol=parallelGw;" vertex="1" parent="ABjkptQIAevgnRErGSgK-1">
          <mxGeometry x="950" y="125" width="50" height="50" as="geometry" />
        </mxCell>
        <mxCell id="ABjkptQIAevgnRErGSgK-91" style="edgeStyle=orthogonalEdgeStyle;rounded=0;orthogonalLoop=1;jettySize=auto;html=1;exitX=1;exitY=0.5;exitDx=0;exitDy=0;entryX=0;entryY=0.5;entryDx=0;entryDy=0;" edge="1" parent="ABjkptQIAevgnRErGSgK-1" source="ABjkptQIAevgnRErGSgK-86" target="ABjkptQIAevgnRErGSgK-90">
          <mxGeometry relative="1" as="geometry" />
        </mxCell>
        <mxCell id="ABjkptQIAevgnRErGSgK-86" value="Связь с покупателями" style="shape=ext;rounded=1;html=1;whiteSpace=wrap;" vertex="1" parent="ABjkptQIAevgnRErGSgK-1">
          <mxGeometry x="1040" y="40" width="110" height="80" as="geometry" />
        </mxCell>
        <mxCell id="ABjkptQIAevgnRErGSgK-92" style="edgeStyle=orthogonalEdgeStyle;rounded=0;orthogonalLoop=1;jettySize=auto;html=1;exitX=1;exitY=0.5;exitDx=0;exitDy=0;entryX=0;entryY=0.5;entryDx=0;entryDy=0;" edge="1" parent="ABjkptQIAevgnRErGSgK-1" source="ABjkptQIAevgnRErGSgK-87" target="ABjkptQIAevgnRErGSgK-90">
          <mxGeometry relative="1" as="geometry" />
        </mxCell>
        <mxCell id="ABjkptQIAevgnRErGSgK-87" value="Формирование новых документов" style="shape=ext;rounded=1;html=1;whiteSpace=wrap;" vertex="1" parent="ABjkptQIAevgnRErGSgK-1">
          <mxGeometry x="1040" y="150" width="110" height="80" as="geometry" />
        </mxCell>
        <mxCell id="ABjkptQIAevgnRErGSgK-96" style="edgeStyle=orthogonalEdgeStyle;rounded=0;orthogonalLoop=1;jettySize=auto;html=1;exitX=1;exitY=0.5;exitDx=0;exitDy=0;" edge="1" parent="ABjkptQIAevgnRErGSgK-1" source="ABjkptQIAevgnRErGSgK-90" target="ABjkptQIAevgnRErGSgK-66">
          <mxGeometry relative="1" as="geometry" />
        </mxCell>
        <mxCell id="ABjkptQIAevgnRErGSgK-90" value="" style="shape=mxgraph.bpmn.shape;html=1;verticalLabelPosition=bottom;labelBackgroundColor=#ffffff;verticalAlign=top;perimeter=rhombusPerimeter;background=gateway;outline=none;symbol=parallelGw;" vertex="1" parent="ABjkptQIAevgnRErGSgK-1">
          <mxGeometry x="1190" y="120" width="50" height="50" as="geometry" />
        </mxCell>
        <mxCell id="ABjkptQIAevgnRErGSgK-103" value="Нормативные документы" style="shape=mxgraph.bpmn.data;labelPosition=center;verticalLabelPosition=bottom;align=center;verticalAlign=top;size=15;html=1;" vertex="1" parent="ABjkptQIAevgnRErGSgK-1">
          <mxGeometry x="1440" y="50" width="40" height="60" as="geometry" />
        </mxCell>
        <mxCell id="ABjkptQIAevgnRErGSgK-3" value="" style="swimlane;html=1;startSize=20;fontStyle=0;collapsible=0;horizontal=0;swimlaneLine=1;swimlaneFillColor=#ffffff;strokeWidth=2;whiteSpace=wrap;" vertex="1" parent="1">
          <mxGeometry x="70" y="-175" width="1590" height="315" as="geometry" />
        </mxCell>
        <mxCell id="ABjkptQIAevgnRErGSgK-12" style="edgeStyle=orthogonalEdgeStyle;rounded=0;orthogonalLoop=1;jettySize=auto;html=1;exitX=1;exitY=0.5;exitDx=0;exitDy=0;entryX=0;entryY=0.5;entryDx=0;entryDy=0;" edge="1" parent="ABjkptQIAevgnRErGSgK-3" target="ABjkptQIAevgnRErGSgK-11">
          <mxGeometry relative="1" as="geometry">
            <mxPoint x="180" y="110" as="sourcePoint" />
          </mxGeometry>
        </mxCell>
        <mxCell id="ABjkptQIAevgnRErGSgK-7" value="&lt;font style=&quot;font-size: 17px;&quot;&gt;Интернет-заказ&lt;/font&gt;" style="text;html=1;align=center;verticalAlign=middle;resizable=0;points=[];autosize=1;strokeColor=none;fillColor=none;rotation=-90;fontSize=17;horizontal=1;" vertex="1" parent="ABjkptQIAevgnRErGSgK-3">
          <mxGeometry x="-60" y="125" width="150" height="30" as="geometry" />
        </mxCell>
        <mxCell id="ABjkptQIAevgnRErGSgK-14" style="edgeStyle=orthogonalEdgeStyle;rounded=0;orthogonalLoop=1;jettySize=auto;html=1;exitX=0.5;exitY=1;exitDx=0;exitDy=0;entryX=0.5;entryY=0;entryDx=0;entryDy=0;entryPerimeter=0;endArrow=none;endFill=0;dashed=1;" edge="1" parent="ABjkptQIAevgnRErGSgK-3" source="ABjkptQIAevgnRErGSgK-11" target="ABjkptQIAevgnRErGSgK-13">
          <mxGeometry relative="1" as="geometry" />
        </mxCell>
        <mxCell id="ABjkptQIAevgnRErGSgK-11" value="Получение заказа" style="shape=ext;rounded=1;html=1;whiteSpace=wrap;" vertex="1" parent="ABjkptQIAevgnRErGSgK-3">
          <mxGeometry x="220" y="70" width="120" height="80" as="geometry" />
        </mxCell>
        <mxCell id="ABjkptQIAevgnRErGSgK-13" value="Данные заказа" style="shape=mxgraph.bpmn.data;labelPosition=center;verticalLabelPosition=bottom;align=center;verticalAlign=top;size=15;html=1;" vertex="1" parent="ABjkptQIAevgnRErGSgK-3">
          <mxGeometry x="240" y="215" width="40" height="60" as="geometry" />
        </mxCell>
        <mxCell id="ABjkptQIAevgnRErGSgK-15" style="edgeStyle=orthogonalEdgeStyle;rounded=0;orthogonalLoop=1;jettySize=auto;html=1;exitX=1;exitY=0.5;exitDx=0;exitDy=0;entryX=0.5;entryY=0;entryDx=0;entryDy=0;entryPerimeter=0;" edge="1" parent="ABjkptQIAevgnRErGSgK-3" source="ABjkptQIAevgnRErGSgK-11" target="ABjkptQIAevgnRErGSgK-16">
          <mxGeometry relative="1" as="geometry">
            <mxPoint x="450" y="305" as="targetPoint" />
          </mxGeometry>
        </mxCell>
        <mxCell id="ABjkptQIAevgnRErGSgK-16" value="" style="points=[[0.145,0.145,0],[0.5,0,0],[0.855,0.145,0],[1,0.5,0],[0.855,0.855,0],[0.5,1,0],[0.145,0.855,0],[0,0.5,0]];shape=mxgraph.bpmn.event;html=1;verticalLabelPosition=bottom;labelBackgroundColor=#ffffff;verticalAlign=top;align=center;perimeter=ellipsePerimeter;outlineConnect=0;aspect=fixed;outline=catching;symbol=message;" vertex="1" parent="ABjkptQIAevgnRErGSgK-3">
          <mxGeometry x="450" y="295" width="50" height="50" as="geometry" />
        </mxCell>
        <mxCell id="ABjkptQIAevgnRErGSgK-108" style="edgeStyle=orthogonalEdgeStyle;rounded=0;orthogonalLoop=1;jettySize=auto;html=1;exitX=1;exitY=0.5;exitDx=0;exitDy=0;entryX=0;entryY=0.5;entryDx=0;entryDy=0;entryPerimeter=0;" edge="1" parent="ABjkptQIAevgnRErGSgK-3" source="ABjkptQIAevgnRErGSgK-100" target="ABjkptQIAevgnRErGSgK-106">
          <mxGeometry relative="1" as="geometry" />
        </mxCell>
        <mxCell id="ABjkptQIAevgnRErGSgK-100" value="Завершение заказа" style="shape=ext;rounded=1;html=1;whiteSpace=wrap;" vertex="1" parent="ABjkptQIAevgnRErGSgK-3">
          <mxGeometry x="1350" y="150" width="110" height="80" as="geometry" />
        </mxCell>
        <mxCell id="ABjkptQIAevgnRErGSgK-109" style="edgeStyle=orthogonalEdgeStyle;rounded=0;orthogonalLoop=1;jettySize=auto;html=1;exitX=0.5;exitY=0;exitDx=0;exitDy=0;exitPerimeter=0;entryX=0;entryY=0.5;entryDx=0;entryDy=0;" edge="1" parent="ABjkptQIAevgnRErGSgK-3" source="ABjkptQIAevgnRErGSgK-101" target="ABjkptQIAevgnRErGSgK-100">
          <mxGeometry relative="1" as="geometry" />
        </mxCell>
        <mxCell id="ABjkptQIAevgnRErGSgK-101" value="" style="points=[[0.145,0.145,0],[0.5,0,0],[0.855,0.145,0],[1,0.5,0],[0.855,0.855,0],[0.5,1,0],[0.145,0.855,0],[0,0.5,0]];shape=mxgraph.bpmn.event;html=1;verticalLabelPosition=bottom;labelBackgroundColor=#ffffff;verticalAlign=top;align=center;perimeter=ellipsePerimeter;outlineConnect=0;aspect=fixed;outline=catching;symbol=message;" vertex="1" parent="ABjkptQIAevgnRErGSgK-3">
          <mxGeometry x="1300" y="285" width="50" height="50" as="geometry" />
        </mxCell>
        <mxCell id="ABjkptQIAevgnRErGSgK-106" value="" style="points=[[0.145,0.145,0],[0.5,0,0],[0.855,0.145,0],[1,0.5,0],[0.855,0.855,0],[0.5,1,0],[0.145,0.855,0],[0,0.5,0]];shape=mxgraph.bpmn.event;html=1;verticalLabelPosition=bottom;labelBackgroundColor=#ffffff;verticalAlign=top;align=center;perimeter=ellipsePerimeter;outlineConnect=0;aspect=fixed;outline=end;symbol=terminate2;" vertex="1" parent="ABjkptQIAevgnRErGSgK-3">
          <mxGeometry x="1520" y="165" width="50" height="50" as="geometry" />
        </mxCell>
        <mxCell id="ABjkptQIAevgnRErGSgK-107" value="" style="points=[[0.145,0.145,0],[0.5,0,0],[0.855,0.145,0],[1,0.5,0],[0.855,0.855,0],[0.5,1,0],[0.145,0.855,0],[0,0.5,0]];shape=mxgraph.bpmn.event;html=1;verticalLabelPosition=bottom;labelBackgroundColor=#ffffff;verticalAlign=top;align=center;perimeter=ellipsePerimeter;outlineConnect=0;aspect=fixed;outline=standard;symbol=general;" vertex="1" parent="ABjkptQIAevgnRErGSgK-3">
          <mxGeometry x="130" y="85" width="50" height="50" as="geometry" />
        </mxCell>
        <mxCell id="7a84cebc1def654-36" style="edgeStyle=orthogonalEdgeStyle;rounded=0;html=1;jettySize=auto;orthogonalLoop=1;" parent="1" target="7a84cebc1def654-2" edge="1">
          <mxGeometry relative="1" as="geometry">
            <mxPoint x="300" y="290" as="sourcePoint" />
          </mxGeometry>
        </mxCell>
        <mxCell id="7a84cebc1def654-38" style="edgeStyle=orthogonalEdgeStyle;rounded=0;html=1;jettySize=auto;orthogonalLoop=1;endArrow=none;endFill=0;" parent="1" source="7a84cebc1def654-5" edge="1">
          <mxGeometry relative="1" as="geometry">
            <mxPoint x="590" y="250" as="targetPoint" />
          </mxGeometry>
        </mxCell>
        <mxCell id="7a84cebc1def654-39" style="edgeStyle=orthogonalEdgeStyle;rounded=0;html=1;jettySize=auto;orthogonalLoop=1;" parent="1" target="7a84cebc1def654-3" edge="1">
          <mxGeometry relative="1" as="geometry">
            <mxPoint x="480" y="290" as="sourcePoint" />
          </mxGeometry>
        </mxCell>
        <mxCell id="7a84cebc1def654-40" style="edgeStyle=orthogonalEdgeStyle;rounded=0;html=1;jettySize=auto;orthogonalLoop=1;" parent="1" target="7a84cebc1def654-12" edge="1">
          <mxGeometry relative="1" as="geometry">
            <mxPoint x="900" y="290" as="sourcePoint" />
          </mxGeometry>
        </mxCell>
        <mxCell id="7a84cebc1def654-46" style="edgeStyle=orthogonalEdgeStyle;rounded=0;html=1;jettySize=auto;orthogonalLoop=1;" parent="1" target="7a84cebc1def654-26" edge="1">
          <mxGeometry relative="1" as="geometry">
            <mxPoint x="1305" y="515" as="sourcePoint" />
          </mxGeometry>
        </mxCell>
        <mxCell id="7a84cebc1def654-47" style="edgeStyle=orthogonalEdgeStyle;rounded=0;html=1;jettySize=auto;orthogonalLoop=1;" parent="1" target="7a84cebc1def654-6" edge="1">
          <mxGeometry relative="1" as="geometry">
            <mxPoint x="590" y="330" as="sourcePoint" />
          </mxGeometry>
        </mxCell>
        <mxCell id="7a84cebc1def654-48" style="edgeStyle=orthogonalEdgeStyle;rounded=0;html=1;jettySize=auto;orthogonalLoop=1;" parent="1" target="7a84cebc1def654-8" edge="1">
          <mxGeometry relative="1" as="geometry">
            <mxPoint x="590" y="425" as="sourcePoint" />
          </mxGeometry>
        </mxCell>
        <mxCell id="7a84cebc1def654-59" style="edgeStyle=orthogonalEdgeStyle;rounded=0;html=1;jettySize=auto;orthogonalLoop=1;" parent="1" source="7a84cebc1def654-22" edge="1">
          <mxGeometry relative="1" as="geometry">
            <mxPoint x="1050" y="815" as="targetPoint" />
          </mxGeometry>
        </mxCell>
        <mxCell id="7a84cebc1def654-64" style="edgeStyle=orthogonalEdgeStyle;rounded=0;html=1;jettySize=auto;orthogonalLoop=1;" parent="1" source="7a84cebc1def654-20" edge="1">
          <mxGeometry relative="1" as="geometry">
            <mxPoint x="1220" y="815" as="targetPoint" />
          </mxGeometry>
        </mxCell>
        <mxCell id="ABjkptQIAevgnRErGSgK-19" style="edgeStyle=orthogonalEdgeStyle;rounded=0;orthogonalLoop=1;jettySize=auto;html=1;exitX=0.5;exitY=1;exitDx=0;exitDy=0;exitPerimeter=0;entryX=0.5;entryY=0;entryDx=0;entryDy=0;" edge="1" parent="1" source="ABjkptQIAevgnRErGSgK-16" target="ABjkptQIAevgnRErGSgK-18">
          <mxGeometry relative="1" as="geometry" />
        </mxCell>
        <mxCell id="ABjkptQIAevgnRErGSgK-20" style="edgeStyle=orthogonalEdgeStyle;rounded=0;orthogonalLoop=1;jettySize=auto;html=1;exitX=0.5;exitY=0;exitDx=0;exitDy=0;entryX=0.5;entryY=0;entryDx=0;entryDy=0;entryPerimeter=0;endArrow=none;endFill=0;dashed=1;" edge="1" parent="1" source="ABjkptQIAevgnRErGSgK-18" target="ABjkptQIAevgnRErGSgK-13">
          <mxGeometry relative="1" as="geometry" />
        </mxCell>
        <mxCell id="ABjkptQIAevgnRErGSgK-102" style="edgeStyle=orthogonalEdgeStyle;rounded=0;orthogonalLoop=1;jettySize=auto;html=1;exitX=0.5;exitY=0;exitDx=0;exitDy=0;entryX=0.5;entryY=1;entryDx=0;entryDy=0;entryPerimeter=0;" edge="1" parent="1" source="ABjkptQIAevgnRErGSgK-66" target="ABjkptQIAevgnRErGSgK-101">
          <mxGeometry relative="1" as="geometry" />
        </mxCell>
        <mxCell id="ABjkptQIAevgnRErGSgK-105" style="edgeStyle=orthogonalEdgeStyle;rounded=0;orthogonalLoop=1;jettySize=auto;html=1;exitX=0;exitY=0;exitDx=12.5;exitDy=0;exitPerimeter=0;entryX=0.5;entryY=1;entryDx=0;entryDy=0;dashed=1;endArrow=none;endFill=0;" edge="1" parent="1" source="ABjkptQIAevgnRErGSgK-103" target="ABjkptQIAevgnRErGSgK-100">
          <mxGeometry relative="1" as="geometry" />
        </mxCell>
      </root>
    </mxGraphModel>
  </diagram>
</mxfile>
